<svg xmlns="http://www.w3.org/2000/svg" viewBox="0 0 960 635" role="img" aria-labelledby="title desc"><title id="title">Connexion et consultation à distance</title><desc id="desc">Illustration vectorielle violette représentant une personne dans un espace de connexion.</desc><defs><linearGradient id="g" x1="0" x2="1"><stop stop-color="#6c63ff"/><stop offset="1" stop-color="#8b5cf6"/></linearGradient></defs><path fill="#3f3d56" d="M55 360c120-70 230-170 430-180 180-10 300 35 420 110 35 22 35 72-5 91-160 77-350 82-520 33-112-32-220-23-325-54z"/><circle cx="720" cy="170" r="10" fill="#6c63ff"/><circle cx="625" cy="110" r="5" fill="#fff"/><circle cx="805" cy="125" r="5" fill="#ff6584"/><g transform="translate(560 155)"><circle cx="95" cy="42" r="31" fill="#ed9da0"/><path fill="#090814" d="M63 37c-5-40 61-48 70-3-16-9-26-15-38-12-12 3-17 11-32 15z"/><path fill="url(#g)" d="M47 80c25-26 78-27 104 2l28 128H22z"/><path fill="#090814" d="M52 203h57l-22 115H28zM109 203h52l44 113-35 13z"/><path fill="#ed9da0" d="M150 111l62 70-17 16-67-59z"/><path fill="#ed9da0" d="M43 110l-70 56 13 19 76-43z"/></g><g transform="translate(190 115)"><circle cx="90" cy="55" r="29" fill="#ed9da0"/><path fill="#090814" d="M59 49c-3-38 57-49 67-5-13-9-27-12-40-8-10 3-16 9-27 13z"/><path fill="#6c63ff" d="M40 93c25-28 74-27 100 2l35 130H5z"/><path fill="#090814" d="M36 219h55l-20 117H14zM91 219h51l37 117-35 9z"/><path fill="#ed9da0" d="M130 119l71 42-10 20-79-30z"/></g><path fill="#e6e6e6" d="M430 520h150l-20 20H410z"/><circle cx="500" cy="505" r="24" fill="#6c63ff"/></svg>